<mxfile host="app.diagrams.net" modified="2022-10-20T16:33:07.526Z" agent="5.0 (Windows NT 10.0; Win64; x64) AppleWebKit/537.36 (KHTML, like Gecko) Chrome/106.0.0.0 Safari/537.36" etag="eFF2HD1fVSgT2lFserXT" version="20.3.2" type="github">
  <diagram id="Ig9hND3Vq7CuaEmaVJai" name="ユーザーケース">
    <mxGraphModel dx="1221" dy="672" grid="1" gridSize="10" guides="1" tooltips="1" connect="1" arrows="1" fold="1" page="1" pageScale="1" pageWidth="827" pageHeight="1169" math="0" shadow="0">
      <root>
        <mxCell id="0" />
        <mxCell id="1" parent="0" />
        <mxCell id="0PAHJPfofQugYKnEYYdL-1" value="Actor" style="shape=umlActor;verticalLabelPosition=bottom;verticalAlign=top;html=1;outlineConnect=0;" vertex="1" parent="1">
          <mxGeometry x="90" y="180" width="30" height="60" as="geometry" />
        </mxCell>
        <mxCell id="0PAHJPfofQugYKnEYYdL-2" value="" style="whiteSpace=wrap;html=1;aspect=fixed;" vertex="1" parent="1">
          <mxGeometry x="200" y="110" width="620" height="620" as="geometry" />
        </mxCell>
        <mxCell id="0PAHJPfofQugYKnEYYdL-3" value="编辑博客" style="ellipse;whiteSpace=wrap;html=1;" vertex="1" parent="1">
          <mxGeometry x="270" y="190" width="120" height="40" as="geometry" />
        </mxCell>
        <mxCell id="0PAHJPfofQugYKnEYYdL-4" value="&lt;span style=&quot;color: rgb(77, 77, 77); font-family: -apple-system, &amp;quot;SF UI Text&amp;quot;, Arial, &amp;quot;PingFang SC&amp;quot;, &amp;quot;Hiragino Sans GB&amp;quot;, &amp;quot;Microsoft YaHei&amp;quot;, &amp;quot;WenQuanYi Micro Hei&amp;quot;, sans-serif, SimHei, SimSun; font-size: 16px; font-style: normal; font-variant-ligatures: normal; font-variant-caps: normal; font-weight: 400; letter-spacing: normal; orphans: 2; text-align: start; text-indent: 0px; text-transform: none; widows: 2; word-spacing: 0px; -webkit-text-stroke-width: 0px; background-color: rgb(255, 255, 255); text-decoration-thickness: initial; text-decoration-style: initial; text-decoration-color: initial; float: none; display: inline !important;&quot;&gt;参与者(Actor)&lt;/span&gt;" style="text;whiteSpace=wrap;html=1;" vertex="1" parent="1">
          <mxGeometry x="60" y="10" width="130" height="40" as="geometry" />
        </mxCell>
        <mxCell id="0PAHJPfofQugYKnEYYdL-5" value="&lt;span style=&quot;color: rgb(77, 77, 77); font-family: -apple-system, &amp;quot;SF UI Text&amp;quot;, Arial, &amp;quot;PingFang SC&amp;quot;, &amp;quot;Hiragino Sans GB&amp;quot;, &amp;quot;Microsoft YaHei&amp;quot;, &amp;quot;WenQuanYi Micro Hei&amp;quot;, sans-serif, SimHei, SimSun; font-size: 16px; font-style: normal; font-variant-ligatures: normal; font-variant-caps: normal; font-weight: 400; letter-spacing: normal; orphans: 2; text-align: start; text-indent: 0px; text-transform: none; widows: 2; word-spacing: 0px; -webkit-text-stroke-width: 0px; background-color: rgb(255, 255, 255); text-decoration-thickness: initial; text-decoration-style: initial; text-decoration-color: initial; float: none; display: inline !important;&quot;&gt;系统边界(Actor)&lt;/span&gt;" style="text;whiteSpace=wrap;html=1;strokeColor=default;" vertex="1" parent="1">
          <mxGeometry x="430" y="15" width="130" height="40" as="geometry" />
        </mxCell>
        <mxCell id="0PAHJPfofQugYKnEYYdL-6" value="&lt;span style=&quot;color: rgb(77, 77, 77); font-family: -apple-system, &amp;quot;SF UI Text&amp;quot;, Arial, &amp;quot;PingFang SC&amp;quot;, &amp;quot;Hiragino Sans GB&amp;quot;, &amp;quot;Microsoft YaHei&amp;quot;, &amp;quot;WenQuanYi Micro Hei&amp;quot;, sans-serif, SimHei, SimSun; font-size: 16px; text-align: start; background-color: rgb(255, 255, 255);&quot;&gt;用例(user case)&lt;/span&gt;" style="ellipse;whiteSpace=wrap;html=1;" vertex="1" parent="1">
          <mxGeometry x="230" y="10" width="140" height="50" as="geometry" />
        </mxCell>
        <mxCell id="0PAHJPfofQugYKnEYYdL-7" value="看博客" style="ellipse;whiteSpace=wrap;html=1;" vertex="1" parent="1">
          <mxGeometry x="270" y="270" width="120" height="40" as="geometry" />
        </mxCell>
        <mxCell id="0PAHJPfofQugYKnEYYdL-8" value="新建博客" style="ellipse;whiteSpace=wrap;html=1;" vertex="1" parent="1">
          <mxGeometry x="270" y="350" width="120" height="40" as="geometry" />
        </mxCell>
        <mxCell id="0PAHJPfofQugYKnEYYdL-9" value="删除博客" style="ellipse;whiteSpace=wrap;html=1;" vertex="1" parent="1">
          <mxGeometry x="270" y="420" width="120" height="40" as="geometry" />
        </mxCell>
        <mxCell id="0PAHJPfofQugYKnEYYdL-10" value="编辑博客" style="ellipse;whiteSpace=wrap;html=1;" vertex="1" parent="1">
          <mxGeometry x="270" y="190" width="120" height="40" as="geometry" />
        </mxCell>
        <mxCell id="0PAHJPfofQugYKnEYYdL-11" value="看博客" style="ellipse;whiteSpace=wrap;html=1;" vertex="1" parent="1">
          <mxGeometry x="270" y="270" width="120" height="40" as="geometry" />
        </mxCell>
        <mxCell id="0PAHJPfofQugYKnEYYdL-12" value="新建博客" style="ellipse;whiteSpace=wrap;html=1;" vertex="1" parent="1">
          <mxGeometry x="270" y="350" width="120" height="40" as="geometry" />
        </mxCell>
        <mxCell id="0PAHJPfofQugYKnEYYdL-13" value="编辑分类" style="ellipse;whiteSpace=wrap;html=1;" vertex="1" parent="1">
          <mxGeometry x="270" y="500" width="120" height="40" as="geometry" />
        </mxCell>
        <mxCell id="0PAHJPfofQugYKnEYYdL-16" value="删除分类" style="ellipse;whiteSpace=wrap;html=1;" vertex="1" parent="1">
          <mxGeometry x="270" y="660" width="120" height="40" as="geometry" />
        </mxCell>
        <mxCell id="0PAHJPfofQugYKnEYYdL-17" value="增加分类" style="ellipse;whiteSpace=wrap;html=1;" vertex="1" parent="1">
          <mxGeometry x="270" y="580" width="120" height="40" as="geometry" />
        </mxCell>
        <mxCell id="0PAHJPfofQugYKnEYYdL-18" value="" style="endArrow=classic;html=1;rounded=0;exitX=1;exitY=0.3333333333333333;exitDx=0;exitDy=0;exitPerimeter=0;entryX=0;entryY=0.5;entryDx=0;entryDy=0;" edge="1" parent="1" source="0PAHJPfofQugYKnEYYdL-1" target="0PAHJPfofQugYKnEYYdL-10">
          <mxGeometry width="50" height="50" relative="1" as="geometry">
            <mxPoint x="390" y="420" as="sourcePoint" />
            <mxPoint x="440" y="370" as="targetPoint" />
          </mxGeometry>
        </mxCell>
        <mxCell id="0PAHJPfofQugYKnEYYdL-19" value="" style="endArrow=classic;html=1;rounded=0;entryX=0;entryY=0.5;entryDx=0;entryDy=0;" edge="1" parent="1" target="0PAHJPfofQugYKnEYYdL-11">
          <mxGeometry width="50" height="50" relative="1" as="geometry">
            <mxPoint x="120" y="200" as="sourcePoint" />
            <mxPoint x="280" y="220" as="targetPoint" />
          </mxGeometry>
        </mxCell>
        <mxCell id="0PAHJPfofQugYKnEYYdL-20" value="" style="endArrow=classic;html=1;rounded=0;entryX=0;entryY=0.5;entryDx=0;entryDy=0;" edge="1" parent="1" target="0PAHJPfofQugYKnEYYdL-12">
          <mxGeometry width="50" height="50" relative="1" as="geometry">
            <mxPoint x="120" y="200" as="sourcePoint" />
            <mxPoint x="280" y="300" as="targetPoint" />
          </mxGeometry>
        </mxCell>
        <mxCell id="0PAHJPfofQugYKnEYYdL-21" value="" style="endArrow=classic;html=1;rounded=0;entryX=0;entryY=0.5;entryDx=0;entryDy=0;" edge="1" parent="1" target="0PAHJPfofQugYKnEYYdL-9">
          <mxGeometry width="50" height="50" relative="1" as="geometry">
            <mxPoint x="120" y="200" as="sourcePoint" />
            <mxPoint x="280" y="380" as="targetPoint" />
          </mxGeometry>
        </mxCell>
        <mxCell id="0PAHJPfofQugYKnEYYdL-22" value="" style="endArrow=classic;html=1;rounded=0;entryX=0;entryY=0.5;entryDx=0;entryDy=0;" edge="1" parent="1" target="0PAHJPfofQugYKnEYYdL-13">
          <mxGeometry width="50" height="50" relative="1" as="geometry">
            <mxPoint x="120" y="200" as="sourcePoint" />
            <mxPoint x="280" y="450" as="targetPoint" />
          </mxGeometry>
        </mxCell>
        <mxCell id="0PAHJPfofQugYKnEYYdL-23" value="" style="endArrow=classic;html=1;rounded=0;entryX=0;entryY=0.5;entryDx=0;entryDy=0;exitX=1;exitY=0.3333333333333333;exitDx=0;exitDy=0;exitPerimeter=0;" edge="1" parent="1" source="0PAHJPfofQugYKnEYYdL-1" target="0PAHJPfofQugYKnEYYdL-17">
          <mxGeometry width="50" height="50" relative="1" as="geometry">
            <mxPoint x="130" y="210" as="sourcePoint" />
            <mxPoint x="280" y="530" as="targetPoint" />
          </mxGeometry>
        </mxCell>
        <mxCell id="0PAHJPfofQugYKnEYYdL-24" value="" style="endArrow=classic;html=1;rounded=0;entryX=0;entryY=0.5;entryDx=0;entryDy=0;" edge="1" parent="1" target="0PAHJPfofQugYKnEYYdL-16">
          <mxGeometry width="50" height="50" relative="1" as="geometry">
            <mxPoint x="120" y="200" as="sourcePoint" />
            <mxPoint x="280" y="610" as="targetPoint" />
          </mxGeometry>
        </mxCell>
      </root>
    </mxGraphModel>
  </diagram>
</mxfile>
